<svg width="10" height="9" viewBox="0 0 10 9" fill="none" xmlns="http://www.w3.org/2000/svg">
<path d="M3.41721 2.2865V0.650391M6.68944 2.2865V0.650391M3.00818 3.92262H7.09847M2.19013 8.01291H7.91653C8.13349 8.01291 8.34157 7.92672 8.49498 7.7733C8.6484 7.61989 8.73458 7.41181 8.73458 7.19485V2.2865C8.73458 2.06954 8.6484 1.86147 8.49498 1.70805C8.34157 1.55464 8.13349 1.46845 7.91653 1.46845H2.19013C1.97317 1.46845 1.76509 1.55464 1.61167 1.70805C1.45826 1.86147 1.37207 2.06954 1.37207 2.2865V7.19485C1.37207 7.41181 1.45826 7.61989 1.61167 7.7733C1.76509 7.92672 1.97317 8.01291 2.19013 8.01291Z" stroke="#848484" stroke-linecap="round" stroke-linejoin="round"/>
</svg>
